<svg xmlns="http://www.w3.org/2000/svg" xmlns:xlink="http://www.w3.org/1999/xlink" width="12.2" height="13.968" viewBox="0 0 12.2 13.968"><defs><linearGradient id="a" x1="0.5" x2="0.5" y2="1" gradientUnits="objectBoundingBox"><stop offset="0" stop-color="#9b1ac2"/><stop offset="0.005" stop-color="#b410e5"/><stop offset="1" stop-color="#6f118b"/></linearGradient></defs><g transform="translate(-40.999 -21.071)"><g transform="translate(40.999 21.071)"><g transform="translate(0)"><path d="M9.7,13.968H2.506A2.64,2.64,0,0,1,.667,13.24a2.152,2.152,0,0,1-.66-1.717L.695,3.672a1.045,1.045,0,0,1,1.074-.9H3.126V4.594a.388.388,0,0,0,.132.289.484.484,0,0,0,.637,0,.388.388,0,0,0,.132-.289V2.771h-.9V2.715A2.857,2.857,0,0,1,6.1,0,2.857,2.857,0,0,1,9.076,2.715v.056h1.357a1.045,1.045,0,0,1,1.074.9l.42,4.8-1.2-1.058a.357.357,0,0,0-.245-.091.442.442,0,0,0-.263.088.361.361,0,0,0-.134.257.283.283,0,0,0,.022.124.279.279,0,0,0,.074.1l.244.215a.14.14,0,0,1,.048.1.175.175,0,0,1-.057.127.208.208,0,0,1-.142.057.169.169,0,0,1-.112-.04L9.306,7.6a.337.337,0,0,0-.224-.08.417.417,0,0,0-.283.113.349.349,0,0,0-.114.255.281.281,0,0,0,.1.209l.733.646a.14.14,0,0,1,.048.1.175.175,0,0,1-.057.127.208.208,0,0,1-.142.057.169.169,0,0,1-.112-.04l-1.1-.97a.337.337,0,0,0-.224-.08.417.417,0,0,0-.283.113.349.349,0,0,0-.115.255.281.281,0,0,0,.1.209l1.1.97a.14.14,0,0,1,.048.1.175.175,0,0,1-.057.127.208.208,0,0,1-.142.057.169.169,0,0,1-.112-.04L6.275,7.812a.461.461,0,0,0-.143-.266.529.529,0,0,0-.175-.11.555.555,0,0,0-.2-.037H5.719a.381.381,0,0,0-.048,0,.417.417,0,0,0-.283.113.346.346,0,0,0-.114.267.431.431,0,0,0,.019.21.471.471,0,0,0,.124.189.544.544,0,0,0,.348.146l2.417,2.13a1.85,1.85,0,0,1,.428.517.431.431,0,0,1,.047.237.511.511,0,0,1-.086.241.6.6,0,0,1-.194.182.618.618,0,0,1-.256.083c-.093.008-.187.012-.279.012a3.085,3.085,0,0,1-.377-.023,4.431,4.431,0,0,0-.518-.028,4.786,4.786,0,0,0-.767.059,1.014,1.014,0,0,0-.458.154.331.331,0,0,0-.112.326c.024.055.086.083.185.083H5.83c.032,0,.067,0,.106,0a7.62,7.62,0,0,1,1.269.158,12.2,12.2,0,0,1,1.458.368,3.794,3.794,0,0,0,1.159.145c.2,0,.4-.008.608-.025.033,0,.067,0,.1,0a1.177,1.177,0,0,1,.783.281l.045.039a.169.169,0,0,0,.112.04h.008a2.468,2.468,0,0,1-.382.287,2.62,2.62,0,0,1-.434.212,2.718,2.718,0,0,1-.471.131A2.746,2.746,0,0,1,9.7,13.968ZM6.087,6.083h0a2.448,2.448,0,0,0-1.56.6,2.131,2.131,0,0,0-.491.628,1.985,1.985,0,0,0-.215.774.108.108,0,0,0,.021.072.134.134,0,0,0,.1.053l.382.01h0a.132.132,0,0,0,.085-.03.109.109,0,0,0,.04-.075,1.457,1.457,0,0,1,.161-.558A1.565,1.565,0,0,1,4.971,7.1a1.721,1.721,0,0,1,.508-.309,1.85,1.85,0,0,1,.615-.127.118.118,0,0,0,.119-.113l0-.349a.111.111,0,0,0-.025-.071A.133.133,0,0,0,6.087,6.083Zm-.01-1.152a3.848,3.848,0,0,0-1.343.244,3.654,3.654,0,0,0-.588.284,3.5,3.5,0,0,0-.515.376,3.327,3.327,0,0,0-.429.457,3.161,3.161,0,0,0-.331.527,3.019,3.019,0,0,0-.314,1.216.109.109,0,0,0,.022.071.135.135,0,0,0,.1.052l.381.01h0a.119.119,0,0,0,.123-.108,2.563,2.563,0,0,1,.886-1.8,3.065,3.065,0,0,1,2.005-.746A.118.118,0,0,0,6.206,5.4l0-.348a.111.111,0,0,0-.025-.071.134.134,0,0,0-.1-.049h0ZM8.12,6.937h0l.054.055a.43.43,0,0,0-.043-.045l-.011-.01ZM4.028,2.771H8.174V4.594a.388.388,0,0,0,.132.289.484.484,0,0,0,.637,0,.388.388,0,0,0,.132-.289V2.771h-.9V2.715A1.991,1.991,0,0,0,6.1.823,1.991,1.991,0,0,0,4.028,2.715v.056ZM11.489,12.83a.169.169,0,0,1-.112-.04.14.14,0,0,1-.048-.1.175.175,0,0,1,.057-.127l.131-.124a.208.208,0,0,1,.142-.057.169.169,0,0,1,.112.04.14.14,0,0,1,.048.1.175.175,0,0,1-.057.127l-.131.124A.208.208,0,0,1,11.489,12.83Zm.648-.622h0a.165.165,0,0,1-.1-.04.14.14,0,0,1-.048-.1.175.175,0,0,1,.057-.127l.156-.148a2.08,2.08,0,0,1-.063.42ZM12,9.441a.169.169,0,0,1-.112-.04l-.733-.646a.14.14,0,0,1-.048-.1.175.175,0,0,1,.057-.127.208.208,0,0,1,.142-.057.169.169,0,0,1,.112.04l.552.486.039.448Z" fill="url(#a)"/></g></g></g></svg>